<mxfile host="Electron" agent="Mozilla/5.0 (X11; Linux x86_64) AppleWebKit/537.36 (KHTML, like Gecko) draw.io/24.7.17 Chrome/128.0.6613.36 Electron/32.0.1 Safari/537.36" version="24.7.17">
  <diagram name="Page-1" id="PPDrczENt_3QulqG-N9J">
    <mxGraphModel dx="512" dy="367" grid="1" gridSize="10" guides="1" tooltips="1" connect="1" arrows="1" fold="1" page="1" pageScale="1" pageWidth="850" pageHeight="1100" math="0" shadow="0">
      <root>
        <mxCell id="0" />
        <mxCell id="1" parent="0" />
        <mxCell id="UkmqfueBgn1MjyEi2XWP-10" value="" style="rounded=0;whiteSpace=wrap;html=1;dashed=1;dashPattern=8 8;fillColor=none;" vertex="1" parent="1">
          <mxGeometry x="190" y="180" width="320" height="270" as="geometry" />
        </mxCell>
        <mxCell id="UkmqfueBgn1MjyEi2XWP-6" style="edgeStyle=orthogonalEdgeStyle;rounded=0;orthogonalLoop=1;jettySize=auto;html=1;startArrow=classic;startFill=1;" edge="1" parent="1" source="UkmqfueBgn1MjyEi2XWP-2" target="UkmqfueBgn1MjyEi2XWP-4">
          <mxGeometry relative="1" as="geometry" />
        </mxCell>
        <mxCell id="UkmqfueBgn1MjyEi2XWP-2" value="&lt;font face=&quot;Courier New&quot;&gt;&lt;b&gt;INVALID&lt;/b&gt;&lt;/font&gt;" style="ellipse;whiteSpace=wrap;html=1;aspect=fixed;" vertex="1" parent="1">
          <mxGeometry x="320" y="80" width="70" height="70" as="geometry" />
        </mxCell>
        <mxCell id="UkmqfueBgn1MjyEi2XWP-8" style="edgeStyle=orthogonalEdgeStyle;rounded=0;orthogonalLoop=1;jettySize=auto;html=1;entryX=1;entryY=0.5;entryDx=0;entryDy=0;" edge="1" parent="1" source="UkmqfueBgn1MjyEi2XWP-3" target="UkmqfueBgn1MjyEi2XWP-4">
          <mxGeometry relative="1" as="geometry">
            <Array as="points">
              <mxPoint x="410" y="400" />
              <mxPoint x="410" y="255" />
            </Array>
          </mxGeometry>
        </mxCell>
        <mxCell id="UkmqfueBgn1MjyEi2XWP-9" style="edgeStyle=orthogonalEdgeStyle;rounded=0;orthogonalLoop=1;jettySize=auto;html=1;entryX=0;entryY=0.5;entryDx=0;entryDy=0;" edge="1" parent="1" source="UkmqfueBgn1MjyEi2XWP-3" target="UkmqfueBgn1MjyEi2XWP-2">
          <mxGeometry relative="1" as="geometry">
            <Array as="points">
              <mxPoint x="300" y="400" />
              <mxPoint x="300" y="115" />
            </Array>
          </mxGeometry>
        </mxCell>
        <mxCell id="UkmqfueBgn1MjyEi2XWP-3" value="&lt;font face=&quot;Courier New&quot;&gt;&lt;b&gt;VALID&lt;br&gt;RUNNING&lt;/b&gt;&lt;/font&gt;" style="ellipse;whiteSpace=wrap;html=1;aspect=fixed;" vertex="1" parent="1">
          <mxGeometry x="320" y="360" width="70" height="70" as="geometry" />
        </mxCell>
        <mxCell id="UkmqfueBgn1MjyEi2XWP-7" style="edgeStyle=orthogonalEdgeStyle;rounded=0;orthogonalLoop=1;jettySize=auto;html=1;" edge="1" parent="1" source="UkmqfueBgn1MjyEi2XWP-4" target="UkmqfueBgn1MjyEi2XWP-3">
          <mxGeometry relative="1" as="geometry" />
        </mxCell>
        <mxCell id="UkmqfueBgn1MjyEi2XWP-4" value="&lt;font face=&quot;Courier New&quot;&gt;&lt;b&gt;VALID&lt;/b&gt;&lt;/font&gt;&lt;div&gt;&lt;font face=&quot;Courier New&quot;&gt;&lt;b&gt;RUNNABLE&lt;/b&gt;&lt;/font&gt;&lt;/div&gt;" style="ellipse;whiteSpace=wrap;html=1;aspect=fixed;" vertex="1" parent="1">
          <mxGeometry x="320" y="220" width="70" height="70" as="geometry" />
        </mxCell>
        <mxCell id="UkmqfueBgn1MjyEi2XWP-11" value="&lt;font face=&quot;Courier New&quot;&gt;Snapshot Boundary&lt;br&gt;(no yaml changes)&lt;/font&gt;" style="text;html=1;align=center;verticalAlign=middle;resizable=0;points=[];autosize=1;strokeColor=none;fillColor=none;" vertex="1" parent="1">
          <mxGeometry x="420" y="140" width="150" height="40" as="geometry" />
        </mxCell>
        <mxCell id="UkmqfueBgn1MjyEi2XWP-12" value="&lt;font face=&quot;Courier New&quot;&gt;proc dies&lt;/font&gt;" style="text;html=1;align=center;verticalAlign=middle;resizable=0;points=[];autosize=1;strokeColor=none;fillColor=none;" vertex="1" parent="1">
          <mxGeometry x="400" y="300" width="90" height="30" as="geometry" />
        </mxCell>
        <mxCell id="UkmqfueBgn1MjyEi2XWP-13" value="&lt;font face=&quot;Courier New&quot;&gt;/cmd/stop&lt;/font&gt;" style="text;html=1;align=center;verticalAlign=middle;resizable=0;points=[];autosize=1;strokeColor=none;fillColor=none;" vertex="1" parent="1">
          <mxGeometry x="210" y="260" width="90" height="30" as="geometry" />
        </mxCell>
        <mxCell id="UkmqfueBgn1MjyEi2XWP-14" value="" style="endArrow=classic;html=1;rounded=0;" edge="1" parent="1" target="UkmqfueBgn1MjyEi2XWP-2">
          <mxGeometry width="50" height="50" relative="1" as="geometry">
            <mxPoint x="410" y="70" as="sourcePoint" />
            <mxPoint x="410" y="160" as="targetPoint" />
          </mxGeometry>
        </mxCell>
      </root>
    </mxGraphModel>
  </diagram>
</mxfile>
